# xmcd
#
# Track frame offsets:
#	150
#	20500
#	34672
#	51825
#	67575
#	87927
#	102100
#	119252
#
# Disc length: 1800 seconds
#
# Revision: 1
# Processed by: cddbd v1.5.1PL0 Copyright (c) Steve Scherf et al.
# Submitted via: audiograbber 1.83.01
#
DISCID=59070608
DTITLE=Various Artist - NuTech SMCDG 1001 Female Country Greats Vol 1
DYEAR=1900
DGENRE=Country
TTITLE0=Wynonna - She Is His Only Need
TTITLE1=McEntire, Reba - It's Your Call
TTITLE2=Yearwood, Trisha - Woman Before Me, The
TTITLE3=Tucker, Tanya - Soon
TTITLE4=Wynonna - She Is His Only Need (Voc)
TTITLE5=McEntire, Reba - It's Your Call (Voc)
TTITLE6=Yearwood, Trisha - Woman Before Me, The (Voc)
TTITLE7=Tucker, Tanya - Soon (Voc)
EXTD=
EXTT0=
EXTT1=
EXTT2=
EXTT3=
EXTT4=
EXTT5=
EXTT6=
EXTT7=
PLAYORDER=
